solid inlet
  facet normal -1.000000000 0.000000000 0.000000000
    outer loop
      vertex -0.750000000 -0.400000000 1.300000000
      vertex -0.750000000 0.400000000 0.300000000
      vertex -0.750000000 -0.400000000 0.300000000
    endloop
  endfacet
  facet normal -1.000000000 0.000000000 0.000000000
    outer loop
      vertex -0.750000000 -0.400000000 1.300000000
      vertex -0.750000000 0.400000000 1.300000000
      vertex -0.750000000 0.400000000 0.300000000
    endloop
  endfacet
  facet normal 0.000000000 -1.000000000 0.000000000
    outer loop
      vertex 0.400000000 -0.750000000 0.300000000
      vertex -0.400000000 -0.750000000 1.300000000
      vertex -0.400000000 -0.750000000 0.300000000
    endloop
  endfacet
  facet normal 0.000000000 -1.000000000 0.000000000
    outer loop
      vertex 0.400000000 -0.750000000 0.300000000
      vertex 0.400000000 -0.750000000 1.300000000
      vertex -0.400000000 -0.750000000 1.300000000
    endloop
  endfacet
  facet normal 0.000000000 1.000000000 0.000000000
    outer loop
      vertex 0.400000000 0.750000000 0.300000000
      vertex -0.400000000 0.750000000 0.300000000
      vertex -0.400000000 0.750000000 1.300000000
    endloop
  endfacet
  facet normal 0.000000000 1.000000000 0.000000000
    outer loop
      vertex 0.400000000 0.750000000 0.300000000
      vertex -0.400000000 0.750000000 1.300000000
      vertex 0.400000000 0.750000000 1.300000000
    endloop
  endfacet
  facet normal 1.000000000 0.000000000 0.000000000
    outer loop
      vertex 0.750000000 -0.400000000 1.300000000
      vertex 0.750000000 -0.400000000 0.300000000
      vertex 0.750000000 0.400000000 0.300000000
    endloop
  endfacet
  facet normal 1.000000000 0.000000000 0.000000000
    outer loop
      vertex 0.750000000 -0.400000000 1.300000000
      vertex 0.750000000 0.400000000 0.300000000
      vertex 0.750000000 0.400000000 1.300000000
    endloop
  endfacet
endsolid inlet
solid outlet
  facet normal 0.000000000 0.000000000 1.000000000
    outer loop
      vertex -0.400000000 -0.400000000 4.000000000
      vertex -0.750000000 -0.750000000 4.000000000
      vertex -0.400000000 -0.750000000 4.000000000
    endloop
  endfacet
  facet normal 0.000000000 0.000000000 1.000000000
    outer loop
      vertex -0.400000000 -0.400000000 4.000000000
      vertex -0.750000000 -0.400000000 4.000000000
      vertex -0.750000000 -0.750000000 4.000000000
    endloop
  endfacet
  facet normal 0.000000000 0.000000000 1.000000000
    outer loop
      vertex -0.400000000 0.400000000 4.000000000
      vertex -0.750000000 -0.400000000 4.000000000
      vertex -0.400000000 -0.400000000 4.000000000
    endloop
  endfacet
  facet normal 0.000000000 0.000000000 1.000000000
    outer loop
      vertex -0.400000000 0.400000000 4.000000000
      vertex -0.750000000 0.400000000 4.000000000
      vertex -0.750000000 -0.400000000 4.000000000
    endloop
  endfacet
  facet normal 0.000000000 0.000000000 1.000000000
    outer loop
      vertex -0.400000000 0.750000000 4.000000000
      vertex -0.750000000 0.400000000 4.000000000
      vertex -0.400000000 0.400000000 4.000000000
    endloop
  endfacet
  facet normal 0.000000000 0.000000000 1.000000000
    outer loop
      vertex -0.400000000 0.750000000 4.000000000
      vertex -0.750000000 0.750000000 4.000000000
      vertex -0.750000000 0.400000000 4.000000000
    endloop
  endfacet
  facet normal 0.000000000 0.000000000 1.000000000
    outer loop
      vertex 0.400000000 -0.400000000 4.000000000
      vertex -0.400000000 -0.750000000 4.000000000
      vertex 0.400000000 -0.750000000 4.000000000
    endloop
  endfacet
  facet normal 0.000000000 0.000000000 1.000000000
    outer loop
      vertex 0.400000000 -0.400000000 4.000000000
      vertex -0.400000000 -0.400000000 4.000000000
      vertex -0.400000000 -0.750000000 4.000000000
    endloop
  endfacet
  facet normal 0.000000000 0.000000000 1.000000000
    outer loop
      vertex 0.400000000 0.400000000 4.000000000
      vertex -0.400000000 -0.400000000 4.000000000
      vertex 0.400000000 -0.400000000 4.000000000
    endloop
  endfacet
  facet normal 0.000000000 0.000000000 1.000000000
    outer loop
      vertex 0.400000000 0.400000000 4.000000000
      vertex -0.400000000 0.400000000 4.000000000
      vertex -0.400000000 -0.400000000 4.000000000
    endloop
  endfacet
  facet normal 0.000000000 0.000000000 1.000000000
    outer loop
      vertex 0.400000000 0.750000000 4.000000000
      vertex -0.400000000 0.400000000 4.000000000
      vertex 0.400000000 0.400000000 4.000000000
    endloop
  endfacet
  facet normal 0.000000000 0.000000000 1.000000000
    outer loop
      vertex 0.400000000 0.750000000 4.000000000
      vertex -0.400000000 0.750000000 4.000000000
      vertex -0.400000000 0.400000000 4.000000000
    endloop
  endfacet
  facet normal 0.000000000 0.000000000 1.000000000
    outer loop
      vertex 0.750000000 -0.400000000 4.000000000
      vertex 0.400000000 -0.750000000 4.000000000
      vertex 0.750000000 -0.750000000 4.000000000
    endloop
  endfacet
  facet normal 0.000000000 0.000000000 1.000000000
    outer loop
      vertex 0.750000000 -0.400000000 4.000000000
      vertex 0.400000000 -0.400000000 4.000000000
      vertex 0.400000000 -0.750000000 4.000000000
    endloop
  endfacet
  facet normal 0.000000000 0.000000000 1.000000000
    outer loop
      vertex 0.750000000 0.400000000 4.000000000
      vertex 0.400000000 -0.400000000 4.000000000
      vertex 0.750000000 -0.400000000 4.000000000
    endloop
  endfacet
  facet normal 0.000000000 0.000000000 1.000000000
    outer loop
      vertex 0.750000000 0.400000000 4.000000000
      vertex 0.400000000 0.400000000 4.000000000
      vertex 0.400000000 -0.400000000 4.000000000
    endloop
  endfacet
  facet normal 0.000000000 0.000000000 1.000000000
    outer loop
      vertex 0.750000000 0.750000000 4.000000000
      vertex 0.400000000 0.400000000 4.000000000
      vertex 0.750000000 0.400000000 4.000000000
    endloop
  endfacet
  facet normal 0.000000000 0.000000000 1.000000000
    outer loop
      vertex 0.750000000 0.750000000 4.000000000
      vertex 0.400000000 0.750000000 4.000000000
      vertex 0.400000000 0.400000000 4.000000000
    endloop
  endfacet
endsolid outlet
solid tower
  facet normal -1.000000000 0.000000000 0.000000000
    outer loop
      vertex -0.750000000 -0.750000000 0.300000000
      vertex -0.750000000 -0.400000000 0.000000000
      vertex -0.750000000 -0.750000000 0.000000000
    endloop
  endfacet
  facet normal -1.000000000 0.000000000 0.000000000
    outer loop
      vertex -0.750000000 -0.750000000 0.300000000
      vertex -0.750000000 -0.400000000 0.300000000
      vertex -0.750000000 -0.400000000 0.000000000
    endloop
  endfacet
  facet normal -1.000000000 0.000000000 0.000000000
    outer loop
      vertex -0.750000000 -0.750000000 1.300000000
      vertex -0.750000000 -0.400000000 0.300000000
      vertex -0.750000000 -0.750000000 0.300000000
    endloop
  endfacet
  facet normal -1.000000000 0.000000000 0.000000000
    outer loop
      vertex -0.750000000 -0.750000000 1.300000000
      vertex -0.750000000 -0.400000000 1.300000000
      vertex -0.750000000 -0.400000000 0.300000000
    endloop
  endfacet
  facet normal -1.000000000 0.000000000 0.000000000
    outer loop
      vertex -0.750000000 -0.750000000 4.000000000
      vertex -0.750000000 -0.400000000 1.300000000
      vertex -0.750000000 -0.750000000 1.300000000
    endloop
  endfacet
  facet normal -1.000000000 0.000000000 0.000000000
    outer loop
      vertex -0.750000000 -0.750000000 4.000000000
      vertex -0.750000000 -0.400000000 4.000000000
      vertex -0.750000000 -0.400000000 1.300000000
    endloop
  endfacet
  facet normal 0.000000000 0.000000000 -1.000000000
    outer loop
      vertex -0.750000000 -0.400000000 0.000000000
      vertex -0.400000000 -0.750000000 0.000000000
      vertex -0.750000000 -0.750000000 0.000000000
    endloop
  endfacet
  facet normal 0.000000000 0.000000000 -1.000000000
    outer loop
      vertex -0.750000000 -0.400000000 0.000000000
      vertex -0.400000000 -0.400000000 0.000000000
      vertex -0.400000000 -0.750000000 0.000000000
    endloop
  endfacet
  facet normal -1.000000000 0.000000000 0.000000000
    outer loop
      vertex -0.750000000 -0.400000000 0.300000000
      vertex -0.750000000 0.400000000 0.000000000
      vertex -0.750000000 -0.400000000 0.000000000
    endloop
  endfacet
  facet normal -1.000000000 0.000000000 0.000000000
    outer loop
      vertex -0.750000000 -0.400000000 0.300000000
      vertex -0.750000000 0.400000000 0.300000000
      vertex -0.750000000 0.400000000 0.000000000
    endloop
  endfacet
  facet normal -1.000000000 0.000000000 0.000000000
    outer loop
      vertex -0.750000000 -0.400000000 4.000000000
      vertex -0.750000000 0.400000000 1.300000000
      vertex -0.750000000 -0.400000000 1.300000000
    endloop
  endfacet
  facet normal -1.000000000 0.000000000 0.000000000
    outer loop
      vertex -0.750000000 -0.400000000 4.000000000
      vertex -0.750000000 0.400000000 4.000000000
      vertex -0.750000000 0.400000000 1.300000000
    endloop
  endfacet
  facet normal 0.000000000 0.000000000 -1.000000000
    outer loop
      vertex -0.750000000 0.400000000 0.000000000
      vertex -0.400000000 -0.400000000 0.000000000
      vertex -0.750000000 -0.400000000 0.000000000
    endloop
  endfacet
  facet normal 0.000000000 0.000000000 -1.000000000
    outer loop
      vertex -0.750000000 0.400000000 0.000000000
      vertex -0.400000000 0.400000000 0.000000000
      vertex -0.400000000 -0.400000000 0.000000000
    endloop
  endfacet
  facet normal -1.000000000 0.000000000 0.000000000
    outer loop
      vertex -0.750000000 0.400000000 0.300000000
      vertex -0.750000000 0.750000000 0.000000000
      vertex -0.750000000 0.400000000 0.000000000
    endloop
  endfacet
  facet normal -1.000000000 0.000000000 0.000000000
    outer loop
      vertex -0.750000000 0.400000000 0.300000000
      vertex -0.750000000 0.750000000 0.300000000
      vertex -0.750000000 0.750000000 0.000000000
    endloop
  endfacet
  facet normal -1.000000000 0.000000000 0.000000000
    outer loop
      vertex -0.750000000 0.400000000 1.300000000
      vertex -0.750000000 0.750000000 0.300000000
      vertex -0.750000000 0.400000000 0.300000000
    endloop
  endfacet
  facet normal -1.000000000 0.000000000 0.000000000
    outer loop
      vertex -0.750000000 0.400000000 1.300000000
      vertex -0.750000000 0.750000000 1.300000000
      vertex -0.750000000 0.750000000 0.300000000
    endloop
  endfacet
  facet normal -1.000000000 0.000000000 0.000000000
    outer loop
      vertex -0.750000000 0.400000000 4.000000000
      vertex -0.750000000 0.750000000 1.300000000
      vertex -0.750000000 0.400000000 1.300000000
    endloop
  endfacet
  facet normal -1.000000000 0.000000000 0.000000000
    outer loop
      vertex -0.750000000 0.400000000 4.000000000
      vertex -0.750000000 0.750000000 4.000000000
      vertex -0.750000000 0.750000000 1.300000000
    endloop
  endfacet
  facet normal 0.000000000 0.000000000 -1.000000000
    outer loop
      vertex -0.750000000 0.750000000 0.000000000
      vertex -0.400000000 0.400000000 0.000000000
      vertex -0.750000000 0.400000000 0.000000000
    endloop
  endfacet
  facet normal 0.000000000 0.000000000 -1.000000000
    outer loop
      vertex -0.750000000 0.750000000 0.000000000
      vertex -0.400000000 0.750000000 0.000000000
      vertex -0.400000000 0.400000000 0.000000000
    endloop
  endfacet
  facet normal 0.000000000 -1.000000000 0.000000000
    outer loop
      vertex -0.400000000 -0.750000000 0.000000000
      vertex -0.750000000 -0.750000000 0.300000000
      vertex -0.750000000 -0.750000000 0.000000000
    endloop
  endfacet
  facet normal 0.000000000 -1.000000000 0.000000000
    outer loop
      vertex -0.400000000 -0.750000000 0.000000000
      vertex -0.400000000 -0.750000000 0.300000000
      vertex -0.750000000 -0.750000000 0.300000000
    endloop
  endfacet
  facet normal 0.000000000 -1.000000000 0.000000000
    outer loop
      vertex -0.400000000 -0.750000000 0.300000000
      vertex -0.750000000 -0.750000000 1.300000000
      vertex -0.750000000 -0.750000000 0.300000000
    endloop
  endfacet
  facet normal 0.000000000 -1.000000000 0.000000000
    outer loop
      vertex -0.400000000 -0.750000000 0.300000000
      vertex -0.400000000 -0.750000000 1.300000000
      vertex -0.750000000 -0.750000000 1.300000000
    endloop
  endfacet
  facet normal 0.000000000 -1.000000000 0.000000000
    outer loop
      vertex -0.400000000 -0.750000000 1.300000000
      vertex -0.750000000 -0.750000000 4.000000000
      vertex -0.750000000 -0.750000000 1.300000000
    endloop
  endfacet
  facet normal 0.000000000 -1.000000000 0.000000000
    outer loop
      vertex -0.400000000 -0.750000000 1.300000000
      vertex -0.400000000 -0.750000000 4.000000000
      vertex -0.750000000 -0.750000000 4.000000000
    endloop
  endfacet
  facet normal 0.000000000 0.000000000 -1.000000000
    outer loop
      vertex -0.400000000 -0.400000000 0.000000000
      vertex 0.400000000 -0.750000000 0.000000000
      vertex -0.400000000 -0.750000000 0.000000000
    endloop
  endfacet
  facet normal 0.000000000 0.000000000 -1.000000000
    outer loop
      vertex -0.400000000 -0.400000000 0.000000000
      vertex 0.400000000 -0.400000000 0.000000000
      vertex 0.400000000 -0.750000000 0.000000000
    endloop
  endfacet
  facet normal 0.000000000 0.000000000 -1.000000000
    outer loop
      vertex -0.400000000 0.400000000 0.000000000
      vertex 0.400000000 -0.400000000 0.000000000
      vertex -0.400000000 -0.400000000 0.000000000
    endloop
  endfacet
  facet normal 0.000000000 0.000000000 -1.000000000
    outer loop
      vertex -0.400000000 0.400000000 0.000000000
      vertex 0.400000000 0.400000000 0.000000000
      vertex 0.400000000 -0.400000000 0.000000000
    endloop
  endfacet
  facet normal 0.000000000 1.000000000 0.000000000
    outer loop
      vertex -0.400000000 0.750000000 0.000000000
      vertex -0.750000000 0.750000000 0.000000000
      vertex -0.750000000 0.750000000 0.300000000
    endloop
  endfacet
  facet normal 0.000000000 1.000000000 0.000000000
    outer loop
      vertex -0.400000000 0.750000000 0.000000000
      vertex -0.750000000 0.750000000 0.300000000
      vertex -0.400000000 0.750000000 0.300000000
    endloop
  endfacet
  facet normal 0.000000000 0.000000000 -1.000000000
    outer loop
      vertex -0.400000000 0.750000000 0.000000000
      vertex 0.400000000 0.400000000 0.000000000
      vertex -0.400000000 0.400000000 0.000000000
    endloop
  endfacet
  facet normal 0.000000000 0.000000000 -1.000000000
    outer loop
      vertex -0.400000000 0.750000000 0.000000000
      vertex 0.400000000 0.750000000 0.000000000
      vertex 0.400000000 0.400000000 0.000000000
    endloop
  endfacet
  facet normal 0.000000000 1.000000000 0.000000000
    outer loop
      vertex -0.400000000 0.750000000 0.300000000
      vertex -0.750000000 0.750000000 0.300000000
      vertex -0.750000000 0.750000000 1.300000000
    endloop
  endfacet
  facet normal 0.000000000 1.000000000 0.000000000
    outer loop
      vertex -0.400000000 0.750000000 0.300000000
      vertex -0.750000000 0.750000000 1.300000000
      vertex -0.400000000 0.750000000 1.300000000
    endloop
  endfacet
  facet normal 0.000000000 1.000000000 0.000000000
    outer loop
      vertex -0.400000000 0.750000000 1.300000000
      vertex -0.750000000 0.750000000 1.300000000
      vertex -0.750000000 0.750000000 4.000000000
    endloop
  endfacet
  facet normal 0.000000000 1.000000000 0.000000000
    outer loop
      vertex -0.400000000 0.750000000 1.300000000
      vertex -0.750000000 0.750000000 4.000000000
      vertex -0.400000000 0.750000000 4.000000000
    endloop
  endfacet
  facet normal 0.000000000 -1.000000000 0.000000000
    outer loop
      vertex 0.400000000 -0.750000000 0.000000000
      vertex -0.400000000 -0.750000000 0.300000000
      vertex -0.400000000 -0.750000000 0.000000000
    endloop
  endfacet
  facet normal 0.000000000 -1.000000000 0.000000000
    outer loop
      vertex 0.400000000 -0.750000000 0.000000000
      vertex 0.400000000 -0.750000000 0.300000000
      vertex -0.400000000 -0.750000000 0.300000000
    endloop
  endfacet
  facet normal 0.000000000 -1.000000000 0.000000000
    outer loop
      vertex 0.400000000 -0.750000000 1.300000000
      vertex -0.400000000 -0.750000000 4.000000000
      vertex -0.400000000 -0.750000000 1.300000000
    endloop
  endfacet
  facet normal 0.000000000 -1.000000000 0.000000000
    outer loop
      vertex 0.400000000 -0.750000000 1.300000000
      vertex 0.400000000 -0.750000000 4.000000000
      vertex -0.400000000 -0.750000000 4.000000000
    endloop
  endfacet
  facet normal 0.000000000 0.000000000 -1.000000000
    outer loop
      vertex 0.400000000 -0.400000000 0.000000000
      vertex 0.750000000 -0.750000000 0.000000000
      vertex 0.400000000 -0.750000000 0.000000000
    endloop
  endfacet
  facet normal 0.000000000 0.000000000 -1.000000000
    outer loop
      vertex 0.400000000 -0.400000000 0.000000000
      vertex 0.750000000 -0.400000000 0.000000000
      vertex 0.750000000 -0.750000000 0.000000000
    endloop
  endfacet
  facet normal 0.000000000 0.000000000 -1.000000000
    outer loop
      vertex 0.400000000 0.400000000 0.000000000
      vertex 0.750000000 -0.400000000 0.000000000
      vertex 0.400000000 -0.400000000 0.000000000
    endloop
  endfacet
  facet normal 0.000000000 0.000000000 -1.000000000
    outer loop
      vertex 0.400000000 0.400000000 0.000000000
      vertex 0.750000000 0.400000000 0.000000000
      vertex 0.750000000 -0.400000000 0.000000000
    endloop
  endfacet
  facet normal 0.000000000 1.000000000 0.000000000
    outer loop
      vertex 0.400000000 0.750000000 0.000000000
      vertex -0.400000000 0.750000000 0.000000000
      vertex -0.400000000 0.750000000 0.300000000
    endloop
  endfacet
  facet normal 0.000000000 1.000000000 0.000000000
    outer loop
      vertex 0.400000000 0.750000000 0.000000000
      vertex -0.400000000 0.750000000 0.300000000
      vertex 0.400000000 0.750000000 0.300000000
    endloop
  endfacet
  facet normal 0.000000000 0.000000000 -1.000000000
    outer loop
      vertex 0.400000000 0.750000000 0.000000000
      vertex 0.750000000 0.400000000 0.000000000
      vertex 0.400000000 0.400000000 0.000000000
    endloop
  endfacet
  facet normal 0.000000000 0.000000000 -1.000000000
    outer loop
      vertex 0.400000000 0.750000000 0.000000000
      vertex 0.750000000 0.750000000 0.000000000
      vertex 0.750000000 0.400000000 0.000000000
    endloop
  endfacet
  facet normal 0.000000000 1.000000000 0.000000000
    outer loop
      vertex 0.400000000 0.750000000 1.300000000
      vertex -0.400000000 0.750000000 1.300000000
      vertex -0.400000000 0.750000000 4.000000000
    endloop
  endfacet
  facet normal 0.000000000 1.000000000 0.000000000
    outer loop
      vertex 0.400000000 0.750000000 1.300000000
      vertex -0.400000000 0.750000000 4.000000000
      vertex 0.400000000 0.750000000 4.000000000
    endloop
  endfacet
  facet normal 0.000000000 -1.000000000 0.000000000
    outer loop
      vertex 0.750000000 -0.750000000 0.000000000
      vertex 0.400000000 -0.750000000 0.300000000
      vertex 0.400000000 -0.750000000 0.000000000
    endloop
  endfacet
  facet normal 0.000000000 -1.000000000 0.000000000
    outer loop
      vertex 0.750000000 -0.750000000 0.000000000
      vertex 0.750000000 -0.750000000 0.300000000
      vertex 0.400000000 -0.750000000 0.300000000
    endloop
  endfacet
  facet normal 0.000000000 -1.000000000 0.000000000
    outer loop
      vertex 0.750000000 -0.750000000 0.300000000
      vertex 0.400000000 -0.750000000 1.300000000
      vertex 0.400000000 -0.750000000 0.300000000
    endloop
  endfacet
  facet normal 1.000000000 0.000000000 0.000000000
    outer loop
      vertex 0.750000000 -0.750000000 0.300000000
      vertex 0.750000000 -0.750000000 0.000000000
      vertex 0.750000000 -0.400000000 0.000000000
    endloop
  endfacet
  facet normal 0.000000000 -1.000000000 0.000000000
    outer loop
      vertex 0.750000000 -0.750000000 0.300000000
      vertex 0.750000000 -0.750000000 1.300000000
      vertex 0.400000000 -0.750000000 1.300000000
    endloop
  endfacet
  facet normal 1.000000000 0.000000000 0.000000000
    outer loop
      vertex 0.750000000 -0.750000000 0.300000000
      vertex 0.750000000 -0.400000000 0.000000000
      vertex 0.750000000 -0.400000000 0.300000000
    endloop
  endfacet
  facet normal 0.000000000 -1.000000000 0.000000000
    outer loop
      vertex 0.750000000 -0.750000000 1.300000000
      vertex 0.400000000 -0.750000000 4.000000000
      vertex 0.400000000 -0.750000000 1.300000000
    endloop
  endfacet
  facet normal 1.000000000 0.000000000 0.000000000
    outer loop
      vertex 0.750000000 -0.750000000 1.300000000
      vertex 0.750000000 -0.750000000 0.300000000
      vertex 0.750000000 -0.400000000 0.300000000
    endloop
  endfacet
  facet normal 0.000000000 -1.000000000 0.000000000
    outer loop
      vertex 0.750000000 -0.750000000 1.300000000
      vertex 0.750000000 -0.750000000 4.000000000
      vertex 0.400000000 -0.750000000 4.000000000
    endloop
  endfacet
  facet normal 1.000000000 0.000000000 0.000000000
    outer loop
      vertex 0.750000000 -0.750000000 1.300000000
      vertex 0.750000000 -0.400000000 0.300000000
      vertex 0.750000000 -0.400000000 1.300000000
    endloop
  endfacet
  facet normal 1.000000000 0.000000000 0.000000000
    outer loop
      vertex 0.750000000 -0.750000000 4.000000000
      vertex 0.750000000 -0.750000000 1.300000000
      vertex 0.750000000 -0.400000000 1.300000000
    endloop
  endfacet
  facet normal 1.000000000 0.000000000 0.000000000
    outer loop
      vertex 0.750000000 -0.750000000 4.000000000
      vertex 0.750000000 -0.400000000 1.300000000
      vertex 0.750000000 -0.400000000 4.000000000
    endloop
  endfacet
  facet normal 1.000000000 0.000000000 0.000000000
    outer loop
      vertex 0.750000000 -0.400000000 0.300000000
      vertex 0.750000000 -0.400000000 0.000000000
      vertex 0.750000000 0.400000000 0.000000000
    endloop
  endfacet
  facet normal 1.000000000 0.000000000 0.000000000
    outer loop
      vertex 0.750000000 -0.400000000 0.300000000
      vertex 0.750000000 0.400000000 0.000000000
      vertex 0.750000000 0.400000000 0.300000000
    endloop
  endfacet
  facet normal 1.000000000 0.000000000 0.000000000
    outer loop
      vertex 0.750000000 -0.400000000 4.000000000
      vertex 0.750000000 -0.400000000 1.300000000
      vertex 0.750000000 0.400000000 1.300000000
    endloop
  endfacet
  facet normal 1.000000000 0.000000000 0.000000000
    outer loop
      vertex 0.750000000 -0.400000000 4.000000000
      vertex 0.750000000 0.400000000 1.300000000
      vertex 0.750000000 0.400000000 4.000000000
    endloop
  endfacet
  facet normal 1.000000000 0.000000000 0.000000000
    outer loop
      vertex 0.750000000 0.400000000 0.300000000
      vertex 0.750000000 0.400000000 0.000000000
      vertex 0.750000000 0.750000000 0.000000000
    endloop
  endfacet
  facet normal 1.000000000 0.000000000 0.000000000
    outer loop
      vertex 0.750000000 0.400000000 0.300000000
      vertex 0.750000000 0.750000000 0.000000000
      vertex 0.750000000 0.750000000 0.300000000
    endloop
  endfacet
  facet normal 1.000000000 0.000000000 0.000000000
    outer loop
      vertex 0.750000000 0.400000000 1.300000000
      vertex 0.750000000 0.400000000 0.300000000
      vertex 0.750000000 0.750000000 0.300000000
    endloop
  endfacet
  facet normal 1.000000000 0.000000000 0.000000000
    outer loop
      vertex 0.750000000 0.400000000 1.300000000
      vertex 0.750000000 0.750000000 0.300000000
      vertex 0.750000000 0.750000000 1.300000000
    endloop
  endfacet
  facet normal 1.000000000 0.000000000 0.000000000
    outer loop
      vertex 0.750000000 0.400000000 4.000000000
      vertex 0.750000000 0.400000000 1.300000000
      vertex 0.750000000 0.750000000 1.300000000
    endloop
  endfacet
  facet normal 1.000000000 0.000000000 0.000000000
    outer loop
      vertex 0.750000000 0.400000000 4.000000000
      vertex 0.750000000 0.750000000 1.300000000
      vertex 0.750000000 0.750000000 4.000000000
    endloop
  endfacet
  facet normal 0.000000000 1.000000000 0.000000000
    outer loop
      vertex 0.750000000 0.750000000 0.000000000
      vertex 0.400000000 0.750000000 0.000000000
      vertex 0.400000000 0.750000000 0.300000000
    endloop
  endfacet
  facet normal 0.000000000 1.000000000 0.000000000
    outer loop
      vertex 0.750000000 0.750000000 0.000000000
      vertex 0.400000000 0.750000000 0.300000000
      vertex 0.750000000 0.750000000 0.300000000
    endloop
  endfacet
  facet normal 0.000000000 1.000000000 0.000000000
    outer loop
      vertex 0.750000000 0.750000000 0.300000000
      vertex 0.400000000 0.750000000 0.300000000
      vertex 0.400000000 0.750000000 1.300000000
    endloop
  endfacet
  facet normal 0.000000000 1.000000000 0.000000000
    outer loop
      vertex 0.750000000 0.750000000 0.300000000
      vertex 0.400000000 0.750000000 1.300000000
      vertex 0.750000000 0.750000000 1.300000000
    endloop
  endfacet
  facet normal 0.000000000 1.000000000 0.000000000
    outer loop
      vertex 0.750000000 0.750000000 1.300000000
      vertex 0.400000000 0.750000000 1.300000000
      vertex 0.400000000 0.750000000 4.000000000
    endloop
  endfacet
  facet normal 0.000000000 1.000000000 0.000000000
    outer loop
      vertex 0.750000000 0.750000000 1.300000000
      vertex 0.400000000 0.750000000 4.000000000
      vertex 0.750000000 0.750000000 4.000000000
    endloop
  endfacet
endsolid tower
