# Idealised tree category model: pyramidal_conifer
o tree_category
v 0.180000 0.000000 0.000000
v 0.166298 0.068883 0.000000
v 0.119735 0.049596 3.840000
v 0.129600 0.000000 3.840000
v 0.000000 0.000000 0.000000
v 0.000000 0.000000 3.840000
v 0.127279 0.127279 0.000000
v 0.091641 0.091641 3.840000
v 0.068883 0.166298 0.000000
v 0.049596 0.119735 3.840000
v 0.000000 0.180000 0.000000
v 0.000000 0.129600 3.840000
v -0.068883 0.166298 0.000000
v -0.049596 0.119735 3.840000
v -0.127279 0.127279 0.000000
v -0.091641 0.091641 3.840000
v -0.166298 0.068883 0.000000
v -0.119735 0.049596 3.840000
v -0.180000 0.000000 0.000000
v -0.129600 0.000000 3.840000
v -0.166298 -0.068883 0.000000
v -0.119735 -0.049596 3.840000
v -0.127279 -0.127279 0.000000
v -0.091641 -0.091641 3.840000
v -0.068883 -0.166298 0.000000
v -0.049596 -0.119735 3.840000
v -0.000000 -0.180000 0.000000
v -0.000000 -0.129600 3.840000
v 0.068883 -0.166298 0.000000
v 0.049596 -0.119735 3.840000
v 0.127279 -0.127279 0.000000
v 0.091641 -0.091641 3.840000
v 0.166298 -0.068883 0.000000
v 0.119735 -0.049596 3.840000
v 3.900000 0.000000 3.148800
v 3.603130 1.492465 3.148800
v 0.000000 0.000000 16.000000
v 0.000000 0.000000 3.148800
v 2.757716 2.757716 3.148800
v 1.492465 3.603130 3.148800
v 0.000000 3.900000 3.148800
v -1.492465 3.603130 3.148800
v -2.757716 2.757716 3.148800
v -3.603130 1.492465 3.148800
v -3.900000 0.000000 3.148800
v -3.603130 -1.492465 3.148800
v -2.757716 -2.757716 3.148800
v -1.492465 -3.603130 3.148800
v -0.000000 -3.900000 3.148800
v 1.492465 -3.603130 3.148800
v 2.757716 -2.757716 3.148800
v 3.603130 -1.492465 3.148800
f 1 2 3
f 1 3 4
f 5 2 1
f 6 4 3
f 2 7 8
f 2 8 3
f 5 7 2
f 6 3 8
f 7 9 10
f 7 10 8
f 5 9 7
f 6 8 10
f 9 11 12
f 9 12 10
f 5 11 9
f 6 10 12
f 11 13 14
f 11 14 12
f 5 13 11
f 6 12 14
f 13 15 16
f 13 16 14
f 5 15 13
f 6 14 16
f 15 17 18
f 15 18 16
f 5 17 15
f 6 16 18
f 17 19 20
f 17 20 18
f 5 19 17
f 6 18 20
f 19 21 22
f 19 22 20
f 5 21 19
f 6 20 22
f 21 23 24
f 21 24 22
f 5 23 21
f 6 22 24
f 23 25 26
f 23 26 24
f 5 25 23
f 6 24 26
f 25 27 28
f 25 28 26
f 5 27 25
f 6 26 28
f 27 29 30
f 27 30 28
f 5 29 27
f 6 28 30
f 29 31 32
f 29 32 30
f 5 31 29
f 6 30 32
f 31 33 34
f 31 34 32
f 5 33 31
f 6 32 34
f 33 1 4
f 33 4 34
f 5 1 33
f 6 34 4
f 35 36 37
f 38 36 35
f 36 39 37
f 38 39 36
f 39 40 37
f 38 40 39
f 40 41 37
f 38 41 40
f 41 42 37
f 38 42 41
f 42 43 37
f 38 43 42
f 43 44 37
f 38 44 43
f 44 45 37
f 38 45 44
f 45 46 37
f 38 46 45
f 46 47 37
f 38 47 46
f 47 48 37
f 38 48 47
f 48 49 37
f 38 49 48
f 49 50 37
f 38 50 49
f 50 51 37
f 38 51 50
f 51 52 37
f 38 52 51
f 52 35 37
f 38 35 52
