# Idealised tree category model: small_round_broadleaf
o tree_category
v 0.068400 0.000000 0.000000
v 0.063193 0.026176 0.000000
v 0.045499 0.018846 3.060000
v 0.049248 0.000000 3.060000
v 0.000000 0.000000 0.000000
v 0.000000 0.000000 3.060000
v 0.048366 0.048366 0.000000
v 0.034824 0.034824 3.060000
v 0.026176 0.063193 0.000000
v 0.018846 0.045499 3.060000
v 0.000000 0.068400 0.000000
v 0.000000 0.049248 3.060000
v -0.026176 0.063193 0.000000
v -0.018846 0.045499 3.060000
v -0.048366 0.048366 0.000000
v -0.034824 0.034824 3.060000
v -0.063193 0.026176 0.000000
v -0.045499 0.018846 3.060000
v -0.068400 0.000000 0.000000
v -0.049248 0.000000 3.060000
v -0.063193 -0.026176 0.000000
v -0.045499 -0.018846 3.060000
v -0.048366 -0.048366 0.000000
v -0.034824 -0.034824 3.060000
v -0.026176 -0.063193 0.000000
v -0.018846 -0.045499 3.060000
v -0.000000 -0.068400 0.000000
v -0.000000 -0.049248 3.060000
v 0.026176 -0.063193 0.000000
v 0.018846 -0.045499 3.060000
v 0.048366 -0.048366 0.000000
v 0.034824 -0.034824 3.060000
v 0.063193 -0.026176 0.000000
v 0.045499 -0.018846 3.060000
v 0.989949 0.410051 3.267048
v 1.071514 0.000000 3.267048
v 0.757675 0.757675 3.267048
v 0.410051 0.989949 3.267048
v 0.000000 1.071514 3.267048
v -0.410051 0.989949 3.267048
v -0.757675 0.757675 3.267048
v -0.989949 0.410051 3.267048
v -1.071514 0.000000 3.267048
v -0.989949 -0.410051 3.267048
v -0.757675 -0.757675 3.267048
v -0.410051 -0.989949 3.267048
v -0.000000 -1.071514 3.267048
v 0.410051 -0.989949 3.267048
v 0.757675 -0.757675 3.267048
v 0.989949 -0.410051 3.267048
v 1.829188 0.757675 3.856670
v 1.979899 0.000000 3.856670
v 1.400000 1.400000 3.856670
v 0.757675 1.829188 3.856670
v 0.000000 1.979899 3.856670
v -0.757675 1.829188 3.856670
v -1.400000 1.400000 3.856670
v -1.829188 0.757675 3.856670
v -1.979899 0.000000 3.856670
v -1.829188 -0.757675 3.856670
v -1.400000 -1.400000 3.856670
v -0.757675 -1.829188 3.856670
v -0.000000 -1.979899 3.856670
v 0.757675 -1.829188 3.856670
v 1.400000 -1.400000 3.856670
v 1.829188 -0.757675 3.856670
v 2.389949 0.989949 4.739101
v 2.586863 0.000000 4.739101
v 1.829188 1.829188 4.739101
v 0.989949 2.389949 4.739101
v 0.000000 2.586863 4.739101
v -0.989949 2.389949 4.739101
v -1.829188 1.829188 4.739101
v -2.389949 0.989949 4.739101
v -2.586863 0.000000 4.739101
v -2.389949 -0.989949 4.739101
v -1.829188 -1.829188 4.739101
v -0.989949 -2.389949 4.739101
v -0.000000 -2.586863 4.739101
v 0.989949 -2.389949 4.739101
v 1.829188 -1.829188 4.739101
v 2.389949 -0.989949 4.739101
v 2.586863 1.071514 5.780000
v 2.800000 0.000000 5.780000
v 1.979899 1.979899 5.780000
v 1.071514 2.586863 5.780000
v 0.000000 2.800000 5.780000
v -1.071514 2.586863 5.780000
v -1.979899 1.979899 5.780000
v -2.586863 1.071514 5.780000
v -2.800000 0.000000 5.780000
v -2.586863 -1.071514 5.780000
v -1.979899 -1.979899 5.780000
v -1.071514 -2.586863 5.780000
v -0.000000 -2.800000 5.780000
v 1.071514 -2.586863 5.780000
v 1.979899 -1.979899 5.780000
v 2.586863 -1.071514 5.780000
v 2.389949 0.989949 6.820899
v 2.586863 0.000000 6.820899
v 1.829188 1.829188 6.820899
v 0.989949 2.389949 6.820899
v 0.000000 2.586863 6.820899
v -0.989949 2.389949 6.820899
v -1.829188 1.829188 6.820899
v -2.389949 0.989949 6.820899
v -2.586863 0.000000 6.820899
v -2.389949 -0.989949 6.820899
v -1.829188 -1.829188 6.820899
v -0.989949 -2.389949 6.820899
v -0.000000 -2.586863 6.820899
v 0.989949 -2.389949 6.820899
v 1.829188 -1.829188 6.820899
v 2.389949 -0.989949 6.820899
v 1.829188 0.757675 7.703330
v 1.979899 0.000000 7.703330
v 1.400000 1.400000 7.703330
v 0.757675 1.829188 7.703330
v 0.000000 1.979899 7.703330
v -0.757675 1.829188 7.703330
v -1.400000 1.400000 7.703330
v -1.829188 0.757675 7.703330
v -1.979899 0.000000 7.703330
v -1.829188 -0.757675 7.703330
v -1.400000 -1.400000 7.703330
v -0.757675 -1.829188 7.703330
v -0.000000 -1.979899 7.703330
v 0.757675 -1.829188 7.703330
v 1.400000 -1.400000 7.703330
v 1.829188 -0.757675 7.703330
v 0.989949 0.410051 8.292952
v 1.071514 0.000000 8.292952
v 0.757675 0.757675 8.292952
v 0.410051 0.989949 8.292952
v 0.000000 1.071514 8.292952
v -0.410051 0.989949 8.292952
v -0.757675 0.757675 8.292952
v -0.989949 0.410051 8.292952
v -1.071514 0.000000 8.292952
v -0.989949 -0.410051 8.292952
v -0.757675 -0.757675 8.292952
v -0.410051 -0.989949 8.292952
v -0.000000 -1.071514 8.292952
v 0.410051 -0.989949 8.292952
v 0.757675 -0.757675 8.292952
v 0.989949 -0.410051 8.292952
v 0.000000 0.000000 8.500000
f 1 2 3
f 1 3 4
f 5 2 1
f 6 4 3
f 2 7 8
f 2 8 3
f 5 7 2
f 6 3 8
f 7 9 10
f 7 10 8
f 5 9 7
f 6 8 10
f 9 11 12
f 9 12 10
f 5 11 9
f 6 10 12
f 11 13 14
f 11 14 12
f 5 13 11
f 6 12 14
f 13 15 16
f 13 16 14
f 5 15 13
f 6 14 16
f 15 17 18
f 15 18 16
f 5 17 15
f 6 16 18
f 17 19 20
f 17 20 18
f 5 19 17
f 6 18 20
f 19 21 22
f 19 22 20
f 5 21 19
f 6 20 22
f 21 23 24
f 21 24 22
f 5 23 21
f 6 22 24
f 23 25 26
f 23 26 24
f 5 25 23
f 6 24 26
f 25 27 28
f 25 28 26
f 5 27 25
f 6 26 28
f 27 29 30
f 27 30 28
f 5 29 27
f 6 28 30
f 29 31 32
f 29 32 30
f 5 31 29
f 6 30 32
f 31 33 34
f 31 34 32
f 5 33 31
f 6 32 34
f 33 1 4
f 33 4 34
f 5 1 33
f 6 34 4
f 6 6 35
f 6 35 36
f 6 6 37
f 6 37 35
f 6 6 38
f 6 38 37
f 6 6 39
f 6 39 38
f 6 6 40
f 6 40 39
f 6 6 41
f 6 41 40
f 6 6 42
f 6 42 41
f 6 6 43
f 6 43 42
f 6 6 44
f 6 44 43
f 6 6 45
f 6 45 44
f 6 6 46
f 6 46 45
f 6 6 47
f 6 47 46
f 6 6 48
f 6 48 47
f 6 6 49
f 6 49 48
f 6 6 50
f 6 50 49
f 6 6 36
f 6 36 50
f 36 35 51
f 36 51 52
f 35 37 53
f 35 53 51
f 37 38 54
f 37 54 53
f 38 39 55
f 38 55 54
f 39 40 56
f 39 56 55
f 40 41 57
f 40 57 56
f 41 42 58
f 41 58 57
f 42 43 59
f 42 59 58
f 43 44 60
f 43 60 59
f 44 45 61
f 44 61 60
f 45 46 62
f 45 62 61
f 46 47 63
f 46 63 62
f 47 48 64
f 47 64 63
f 48 49 65
f 48 65 64
f 49 50 66
f 49 66 65
f 50 36 52
f 50 52 66
f 52 51 67
f 52 67 68
f 51 53 69
f 51 69 67
f 53 54 70
f 53 70 69
f 54 55 71
f 54 71 70
f 55 56 72
f 55 72 71
f 56 57 73
f 56 73 72
f 57 58 74
f 57 74 73
f 58 59 75
f 58 75 74
f 59 60 76
f 59 76 75
f 60 61 77
f 60 77 76
f 61 62 78
f 61 78 77
f 62 63 79
f 62 79 78
f 63 64 80
f 63 80 79
f 64 65 81
f 64 81 80
f 65 66 82
f 65 82 81
f 66 52 68
f 66 68 82
f 68 67 83
f 68 83 84
f 67 69 85
f 67 85 83
f 69 70 86
f 69 86 85
f 70 71 87
f 70 87 86
f 71 72 88
f 71 88 87
f 72 73 89
f 72 89 88
f 73 74 90
f 73 90 89
f 74 75 91
f 74 91 90
f 75 76 92
f 75 92 91
f 76 77 93
f 76 93 92
f 77 78 94
f 77 94 93
f 78 79 95
f 78 95 94
f 79 80 96
f 79 96 95
f 80 81 97
f 80 97 96
f 81 82 98
f 81 98 97
f 82 68 84
f 82 84 98
f 84 83 99
f 84 99 100
f 83 85 101
f 83 101 99
f 85 86 102
f 85 102 101
f 86 87 103
f 86 103 102
f 87 88 104
f 87 104 103
f 88 89 105
f 88 105 104
f 89 90 106
f 89 106 105
f 90 91 107
f 90 107 106
f 91 92 108
f 91 108 107
f 92 93 109
f 92 109 108
f 93 94 110
f 93 110 109
f 94 95 111
f 94 111 110
f 95 96 112
f 95 112 111
f 96 97 113
f 96 113 112
f 97 98 114
f 97 114 113
f 98 84 100
f 98 100 114
f 100 99 115
f 100 115 116
f 99 101 117
f 99 117 115
f 101 102 118
f 101 118 117
f 102 103 119
f 102 119 118
f 103 104 120
f 103 120 119
f 104 105 121
f 104 121 120
f 105 106 122
f 105 122 121
f 106 107 123
f 106 123 122
f 107 108 124
f 107 124 123
f 108 109 125
f 108 125 124
f 109 110 126
f 109 126 125
f 110 111 127
f 110 127 126
f 111 112 128
f 111 128 127
f 112 113 129
f 112 129 128
f 113 114 130
f 113 130 129
f 114 100 116
f 114 116 130
f 116 115 131
f 116 131 132
f 115 117 133
f 115 133 131
f 117 118 134
f 117 134 133
f 118 119 135
f 118 135 134
f 119 120 136
f 119 136 135
f 120 121 137
f 120 137 136
f 121 122 138
f 121 138 137
f 122 123 139
f 122 139 138
f 123 124 140
f 123 140 139
f 124 125 141
f 124 141 140
f 125 126 142
f 125 142 141
f 126 127 143
f 126 143 142
f 127 128 144
f 127 144 143
f 128 129 145
f 128 145 144
f 129 130 146
f 129 146 145
f 130 116 132
f 130 132 146
f 132 131 147
f 132 147 147
f 131 133 147
f 131 147 147
f 133 134 147
f 133 147 147
f 134 135 147
f 134 147 147
f 135 136 147
f 135 147 147
f 136 137 147
f 136 147 147
f 137 138 147
f 137 147 147
f 138 139 147
f 138 147 147
f 139 140 147
f 139 147 147
f 140 141 147
f 140 147 147
f 141 142 147
f 141 147 147
f 142 143 147
f 142 147 147
f 143 144 147
f 143 147 147
f 144 145 147
f 144 147 147
f 145 146 147
f 145 147 147
f 146 132 147
f 146 147 147
